<mxfile host="app.diagrams.net" modified="2023-05-08T18:05:36.523Z" agent="Mozilla/5.0 (Windows NT 10.0; Win64; x64) AppleWebKit/537.36 (KHTML, like Gecko) Chrome/113.0.0.0 Safari/537.36 Edg/113.0.1774.35" etag="bNvoKuiY337vdQXSnlXn" version="21.2.9" type="github">
  <diagram name="第 1 页" id="JssdnvTudvS3cxze8pEP">
    <mxGraphModel dx="1186" dy="788" grid="1" gridSize="10" guides="1" tooltips="1" connect="1" arrows="1" fold="1" page="1" pageScale="1" pageWidth="1169" pageHeight="827" math="0" shadow="0">
      <root>
        <mxCell id="0" />
        <mxCell id="1" parent="0" />
        <mxCell id="WVYI7NkaGcuZGcTesj-Y-6" style="edgeStyle=orthogonalEdgeStyle;orthogonalLoop=1;jettySize=auto;html=1;entryX=0;entryY=0.5;entryDx=0;entryDy=0;curved=1;" edge="1" parent="1" source="WVYI7NkaGcuZGcTesj-Y-1" target="WVYI7NkaGcuZGcTesj-Y-3">
          <mxGeometry relative="1" as="geometry" />
        </mxCell>
        <mxCell id="WVYI7NkaGcuZGcTesj-Y-7" style="edgeStyle=orthogonalEdgeStyle;orthogonalLoop=1;jettySize=auto;html=1;entryX=0;entryY=0.5;entryDx=0;entryDy=0;curved=1;" edge="1" parent="1" source="WVYI7NkaGcuZGcTesj-Y-1" target="WVYI7NkaGcuZGcTesj-Y-4">
          <mxGeometry relative="1" as="geometry" />
        </mxCell>
        <mxCell id="WVYI7NkaGcuZGcTesj-Y-8" style="edgeStyle=orthogonalEdgeStyle;orthogonalLoop=1;jettySize=auto;html=1;entryX=0;entryY=0.5;entryDx=0;entryDy=0;curved=1;" edge="1" parent="1" source="WVYI7NkaGcuZGcTesj-Y-1" target="WVYI7NkaGcuZGcTesj-Y-5">
          <mxGeometry relative="1" as="geometry" />
        </mxCell>
        <mxCell id="WVYI7NkaGcuZGcTesj-Y-1" value="参数" style="rounded=1;whiteSpace=wrap;html=1;fontSize=19;" vertex="1" parent="1">
          <mxGeometry x="120" y="260" width="120" height="60" as="geometry" />
        </mxCell>
        <mxCell id="WVYI7NkaGcuZGcTesj-Y-3" value="code" style="rounded=1;whiteSpace=wrap;html=1;fontSize=17;" vertex="1" parent="1">
          <mxGeometry x="340" y="150" width="120" height="60" as="geometry" />
        </mxCell>
        <mxCell id="WVYI7NkaGcuZGcTesj-Y-4" value="msgTemplateId" style="rounded=1;whiteSpace=wrap;html=1;fontSize=17;" vertex="1" parent="1">
          <mxGeometry x="340" y="260" width="120" height="60" as="geometry" />
        </mxCell>
        <mxCell id="WVYI7NkaGcuZGcTesj-Y-5" value="msgParams" style="rounded=1;whiteSpace=wrap;html=1;fontSize=17;" vertex="1" parent="1">
          <mxGeometry x="340" y="370" width="120" height="60" as="geometry" />
        </mxCell>
        <mxCell id="WVYI7NkaGcuZGcTesj-Y-9" value="业务码（可以灵活扩展）" style="rounded=0;whiteSpace=wrap;html=1;fontSize=17;" vertex="1" parent="1">
          <mxGeometry x="477" y="155" width="215" height="50" as="geometry" />
        </mxCell>
        <mxCell id="WVYI7NkaGcuZGcTesj-Y-10" value="消息模板id，可以通过ID获取整个模板信息" style="rounded=0;whiteSpace=wrap;html=1;fontSize=17;" vertex="1" parent="1">
          <mxGeometry x="480" y="260" width="180" height="60" as="geometry" />
        </mxCell>
        <mxCell id="WVYI7NkaGcuZGcTesj-Y-11" value="接受者参数" style="rounded=0;whiteSpace=wrap;html=1;fontSize=17;" vertex="1" parent="1">
          <mxGeometry x="480" y="370" width="120" height="60" as="geometry" />
        </mxCell>
      </root>
    </mxGraphModel>
  </diagram>
</mxfile>
